2200 0 1 0           
10 FEM_MESHER 12 ACIS 28.0 NT 24 Fri Jun  4 12:06:08 2021 
1 1.6978231829579135e-06 1e-10 
body $1 -1 -1 $-1 $2 $-1 $3 T -61.228381041666665 -56.728381041666665 0 61.228381041666651 56.22838104166668 32.728381041666665 #
render-rbase-attrib $-1 -1 $4 $-1 $0 1 1 1 1 1 1 1 1 1 1 1 1 0 1 0 1 1 1 $5 $-1 0 0 #
lump $6 -1 -1 $-1 $-1 $7 $0 T -61.228381041666665 -56.728381041666665 0 61.228381041666651 56.22838104166668 32.728381041666665 #
transform $-1 -1 1 0 0 0 1 0 0 0 1 0 0 0 1 no_rotate no_reflect no_shear #
string_attrib-name_attrib-gen-attrib $-1 -1 $8 $1 $0 2 1 1 1 1 1 1 1 1 1 1 1 1 1 0 1 1 1 @16 FEM_materialHash @30 M1EPNOR0.0000000004.1000000000 #
rh_material-rh_entity $-1 -1 4 4 @5 plain @5 color -4 0.80392158031463623 0.36078432202339172 0.36078432202339172 @5 phong @14 ambient factor -2 1 @14 diffuse factor -2 0.75 @15 specular factor -2 0.5 @8 exponent -2 10 @14 specular color -4 1 1 1 @4 none @5 plain @5 color -4 0 0 0 #
cell_ptr-ct-attrib $-1 -1 $-1 $-1 $2 1 1 1 1 1 1 1 1 1 1 1 1 0 1 0 1 1 1 $9 $-1 auto #
shell $-1 -1 -1 $-1 $-1 $-1 $10 $-1 $2 T -61.228381041666665 -56.728381041666665 0 61.228381041666651 56.22838104166668 32.728381041666665 #
real_attrib-name_attrib-gen-attrib $-1 -1 $11 $4 $0 2 1 1 1 1 1 1 1 1 1 1 1 1 1 0 1 1 1 @17 FEM_mesh_interior 1 #
cell3d-cell $12 -1 $13 $2 $-1 1 $14 #
face $15 -1 -1 $-1 $16 $17 $7 $-1 $18 reversed single T -61.228381041666665 -56.728381041666665 0 61.228381041666651 56.22838104166668 0 F #
integer_attrib-name_attrib-gen-attrib $-1 -1 $19 $8 $0 2 1 1 1 1 1 1 1 1 1 1 1 1 1 0 1 1 1 @11 FEM_cbMatId 3 #
integer_attrib-name_attrib-gen-attrib $-1 -1 $-1 $-1 $9 2 1 1 1 1 1 1 1 1 1 1 1 1 1 0 1 1 1 @5 ngint 0 #
cell3d-cell $20 -1 $-1 $2 $-1 1 $21 #
cshell $-1 -1 $-1 $22 $9 #
integer_attrib-name_attrib-gen-attrib $-1 -1 $23 $-1 $10 2 4 2 1 1 1 1 1 1 1 1 1 1 1 0 1 1 1 @10 FEM_faceId 0 #
face $24 -1 -1 $-1 $25 $26 $7 $-1 $27 forward single T -61.228381041666665 -56.728381041666665 32.728381041666665 61.228381041666651 56.22838104166668 32.728381041666665 F #
loop $-1 -1 -1 $-1 $28 $29 $10 T -61.228381041666665 -56.728381041666665 0 61.228381041666651 56.22838104166668 0 periphery $18 T #
plane-surface $-1 -1 -1 $-1 -7.1054273576010019e-15 -0.24999999999999289 0 0 0 1 1 0 0 forward_v I I I I #
real_attrib-name_attrib-gen-attrib $-1 -1 $30 $11 $0 2 1 1 1 1 1 1 1 1 1 1 1 1 1 0 1 1 1 @12 FEM_epsilonR 4.0999999999999996 #
integer_attrib-name_attrib-gen-attrib $-1 -1 $-1 $-1 $13 2 1 1 1 1 1 1 1 1 1 1 1 1 1 0 1 1 1 @5 ngint 1 #
cshell $-1 -1 $-1 $31 $13 #
cface $32 -1 $33 $14 $16 0 #
integer_attrib-name_attrib-gen-attrib $-1 -1 $34 $15 $10 2 1 1 1 1 1 1 1 1 1 1 1 1 1 0 1 1 1 @5 ngint 0 #
integer_attrib-name_attrib-gen-attrib $-1 -1 $35 $-1 $16 2 4 2 1 1 1 1 1 1 1 1 1 1 1 0 1 1 1 @10 FEM_faceId 1 #
face $36 -1 -1 $-1 $37 $38 $7 $-1 $39 reversed single T -61.228381041666665 -56.728381041666665 0 61.228381041666651 -56.728381041666665 32.728381041666665 F #
loop $-1 -1 -1 $-1 $-1 $40 $16 T -61.228381041666665 -56.728381041666665 32.728381041666665 61.228381041666651 56.22838104166668 32.728381041666665 unknown #
plane-surface $-1 -1 -1 $-1 -7.1054273576010019e-15 -0.24999999999999289 32.728381041666665 0 0 1 1 0 0 forward_v I I I I #
loop $-1 -1 -1 $-1 $-1 $41 $10 T -30 -25 0 29.999999999999989 25.000000000000007 0 hole $18 T #
coedge $-1 -1 -1 $-1 $42 $43 $44 $45 forward $17 $-1 #
real_attrib-name_attrib-gen-attrib $-1 -1 $46 $19 $0 2 1 1 1 1 1 1 1 1 1 1 1 1 1 0 1 1 1 @16 FEM_conductivity 0 #
cface $47 -1 $48 $21 $49 0 #
cface_col_att-cface_vol_att-ct-attrib $-1 -1 $-1 $-1 $22 1 1 1 1 1 1 1 1 1 1 1 1 1 1 0 1 1 1 1 #
cface $50 -1 $51 $14 $52 0 #
integer_attrib-name_attrib-gen-attrib $-1 -1 $53 $23 $10 2 4 2 1 1 1 1 1 1 1 1 1 1 1 0 1 1 1 @9 FEM_bbfId 4 #
integer_attrib-name_attrib-gen-attrib $-1 -1 $54 $24 $16 2 1 1 1 1 1 1 1 1 1 1 1 1 1 0 1 1 1 @5 ngint 1 #
integer_attrib-name_attrib-gen-attrib $-1 -1 $55 $-1 $25 2 4 2 1 1 1 1 1 1 1 1 1 1 1 0 1 1 1 @10 FEM_faceId 2 #
face $56 -1 -1 $-1 $52 $57 $7 $-1 $58 reversed single T -61.228381041666665 -56.728381041666665 0 -61.228381041666665 56.22838104166668 32.728381041666665 F #
loop $-1 -1 -1 $-1 $-1 $59 $25 T -61.228381041666665 -56.728381041666665 0 61.228381041666651 -56.728381041666665 32.728381041666665 unknown #
plane-surface $-1 -1 -1 $-1 -7.1054273576010019e-15 -56.728381041666665 16.364190520833333 0 1 0 0 0 1 forward_v I I I I #
coedge $-1 -1 -1 $-1 $60 $61 $62 $63 forward $26 $-1 #
coedge $-1 -1 -1 $-1 $64 $65 $66 $67 forward $28 $-1 #
coedge $-1 -1 -1 $-1 $68 $29 $69 $70 forward $17 $-1 #
coedge $-1 -1 -1 $-1 $29 $68 $71 $72 forward $17 $-1 #
coedge $-1 -1 -1 $-1 $73 $74 $29 $45 reversed $75 $-1 #
edge $76 -1 -1 $-1 $77 -56.478381041666673 $78 56.478381041666673 $44 $79 forward @7 unknown T 61.228381041666651 -56.728381041666665 0 61.228381041666651 56.22838104166668 0 #
real_attrib-name_attrib-gen-attrib $-1 -1 $80 $30 $0 2 1 1 1 1 1 1 1 1 1 1 1 1 1 0 1 1 1 @12 FEM_priority 25 #
cface_col_att-cface_vol_att-ct-attrib $-1 -1 $-1 $-1 $31 1 1 1 1 1 1 1 1 1 1 1 1 1 1 0 1 1 1 3 #
cface $81 -1 $82 $21 $83 0 #
face $84 -1 -1 $-1 $85 $86 $7 $-1 $87 forward double in T -30 -25 0 29.999999999999989 -24.999999999999986 1.5 F #
cface_col_att-cface_vol_att-ct-attrib $-1 -1 $-1 $-1 $33 1 1 1 1 1 1 1 1 1 1 1 1 1 1 0 1 1 1 1 #
cface $88 -1 $89 $14 $37 0 #
face $90 -1 -1 $-1 $91 $92 $7 $-1 $93 reversed single T -61.228381041666665 56.22838104166668 0 61.228381041666651 56.22838104166668 32.728381041666665 F #
cface_ptr-ct-attrib $-1 -1 $-1 $34 $10 1 1 1 1 1 1 1 1 1 1 1 1 0 1 0 1 1 1 $-1 $94 #
cface_ptr-ct-attrib $-1 -1 $95 $35 $16 1 1 1 1 1 1 1 1 1 1 1 1 0 1 0 1 1 1 $-1 $22 #
integer_attrib-name_attrib-gen-attrib $-1 -1 $96 $36 $25 2 1 1 1 1 1 1 1 1 1 1 1 1 1 0 1 1 1 @5 ngint 2 #
integer_attrib-name_attrib-gen-attrib $-1 -1 $97 $-1 $37 2 4 2 1 1 1 1 1 1 1 1 1 1 1 0 1 1 1 @10 FEM_faceId 3 #
loop $-1 -1 -1 $-1 $-1 $98 $37 T -61.228381041666665 -56.728381041666665 0 -61.228381041666665 56.22838104166668 32.728381041666665 unknown #
plane-surface $-1 -1 -1 $-1 -61.228381041666665 -0.24999999999999289 16.364190520833333 1 0 0 0 0 -1 forward_v I I I I #
coedge $-1 -1 -1 $-1 $69 $99 $100 $101 forward $38 $-1 #
coedge $-1 -1 -1 $-1 $102 $40 $103 $104 forward $26 $-1 #
coedge $-1 -1 -1 $-1 $40 $102 $99 $105 forward $26 $-1 #
coedge $-1 -1 -1 $-1 $74 $73 $40 $63 reversed $75 $-1 #
edge $106 -1 -1 $-1 $107 -56.478381041666673 $108 56.478381041666673 $62 $109 forward @7 unknown T 61.228381041666651 -56.728381041666665 32.728381041666665 61.228381041666651 56.22838104166668 32.728381041666665 #
coedge $-1 -1 -1 $-1 $110 $41 $111 $112 forward $28 $-1 #
coedge $-1 -1 -1 $-1 $41 $110 $113 $114 forward $28 $-1 #
coedge $-1 -1 -1 $-1 $113 $111 $115 $67 reversed $116 $-1 #
edge $117 -1 -1 $-1 $118 0 $119 59.999999999999986 $115 $120 forward @7 unknown T -30 25.000000000000007 0 29.999999999999986 25.000000000000007 0 #
coedge $-1 -1 -1 $-1 $43 $42 $121 $122 forward $17 $-1 #
coedge $-1 -1 -1 $-1 $123 $59 $42 $70 reversed $38 $-1 #
edge $124 -1 -1 $-1 $78 -61.228381041666658 $125 61.228381041666658 $69 $126 forward @7 unknown T -61.228381041666665 -56.728381041666665 0 61.228381041666651 -56.728381041666665 0 #
coedge $-1 -1 -1 $-1 $127 $128 $43 $72 reversed $92 $-1 #
edge $129 -1 -1 $-1 $130 -61.228381041666658 $77 61.228381041666658 $71 $131 forward @7 unknown T -61.228381041666665 56.22838104166668 0 61.228381041666651 56.22838104166668 0 #
coedge $-1 -1 -1 $-1 $62 $44 $128 $132 reversed $75 $-1 #
coedge $-1 -1 -1 $-1 $44 $62 $123 $133 forward $75 $-1 #
loop $-1 -1 -1 $-1 $-1 $74 $91 T 61.228381041666651 -56.728381041666665 0 61.228381041666651 56.22838104166668 32.728381041666665 unknown #
integer_attrib-name_attrib-gen-attrib $-1 -1 $134 $-1 $45 2 4 2 1 1 1 1 1 1 1 1 1 1 1 0 1 1 1 @10 FEM_edgeId 0 #
vertex $-1 -1 -1 $-1 $45 $135 #
vertex $-1 -1 -1 $-1 $133 $136 #
straight-curve $-1 -1 -1 $-1 61.228381041666651 -0.24999999999999289 0 0 -1 0 I I #
string_attrib-name_attrib-gen-attrib $-1 -1 $137 $46 $0 2 1 1 1 1 1 1 1 1 1 1 1 1 1 0 1 1 1 @16 FEM_materialName @10 Dielectric #
cface_col_att-cface_vol_att-ct-attrib $-1 -1 $138 $-1 $48 1 1 1 1 1 1 1 1 1 1 1 1 1 1 0 1 1 1 -2 #
cface $139 -1 $140 $21 $85 0 #
face $141 -1 -1 $-1 $142 $143 $7 $-1 $144 forward double in T -11 -24.999999999999993 1.5 10.999999999999996 11.000000000000005 1.5 F #
integer_attrib-name_attrib-gen-attrib $-1 -1 $145 $-1 $49 2 4 2 1 1 1 1 1 1 1 1 1 1 1 0 1 1 1 @10 FEM_faceId 10 #
face $146 -1 -1 $-1 $83 $147 $7 $-1 $148 forward double in T -30 -25 0 -29.999999999999996 25.000000000000007 1.5 F #
loop $-1 -1 -1 $-1 $-1 $149 $49 T -30 -25 0 29.999999999999989 -24.999999999999986 1.5 unknown #
plane-surface $-1 -1 -1 $-1 -7.1054273576010019e-15 -24.999999999999993 0 2.3684757858670011e-16 -1 0 1 2.3684757858670011e-16 0 forward_v I I I I #
cface_col_att-cface_vol_att-ct-attrib $-1 -1 $-1 $-1 $51 1 1 1 1 1 1 1 1 1 1 1 1 1 1 0 1 1 1 1 #
cface $150 -1 $151 $14 $25 0 #
integer_attrib-name_attrib-gen-attrib $-1 -1 $152 $-1 $52 2 4 2 1 1 1 1 1 1 1 1 1 1 1 0 1 1 1 @10 FEM_faceId 4 #
face $153 -1 -1 $-1 $154 $75 $7 $-1 $155 reversed single T 61.228381041666651 -56.728381041666665 0 61.228381041666651 56.22838104166668 32.728381041666665 F #
loop $-1 -1 -1 $-1 $-1 $128 $52 T -61.228381041666665 56.22838104166668 0 61.228381041666651 56.22838104166668 32.728381041666665 unknown #
plane-surface $-1 -1 -1 $-1 -7.1054273576010019e-15 56.22838104166668 16.364190520833333 0 -1 0 0 0 -1 forward_v I I I I #
cface $156 -1 $157 $14 $10 0 #
integer_attrib-name_attrib-gen-attrib $-1 -1 $158 $54 $16 2 4 2 1 1 1 1 1 1 1 1 1 1 1 0 1 1 1 @9 FEM_bbfId 5 #
cface_ptr-ct-attrib $-1 -1 $159 $55 $25 1 1 1 1 1 1 1 1 1 1 1 1 0 1 0 1 1 1 $-1 $89 #
integer_attrib-name_attrib-gen-attrib $-1 -1 $160 $56 $37 2 1 1 1 1 1 1 1 1 1 1 1 1 1 0 1 1 1 @5 ngint 3 #
coedge $-1 -1 -1 $-1 $121 $161 $127 $162 forward $57 $-1 #
coedge $-1 -1 -1 $-1 $59 $123 $61 $105 reversed $38 $-1 #
coedge $-1 -1 -1 $-1 $161 $121 $59 $101 reversed $57 $-1 #
edge $163 -1 -1 $-1 $164 -16.364190520833333 $125 16.364190520833333 $100 $165 forward @7 unknown T -61.228381041666665 -56.728381041666665 0 -61.228381041666665 -56.728381041666665 32.728381041666665 #
coedge $-1 -1 -1 $-1 $61 $60 $161 $166 forward $26 $-1 #
coedge $-1 -1 -1 $-1 $128 $127 $60 $104 reversed $92 $-1 #
edge $167 -1 -1 $-1 $108 -61.228381041666658 $168 61.228381041666658 $103 $169 forward @7 unknown T -61.228381041666665 56.22838104166668 32.728381041666665 61.228381041666651 56.22838104166668 32.728381041666665 #
edge $170 -1 -1 $-1 $164 -61.228381041666658 $107 61.228381041666658 $99 $171 forward @7 unknown T -61.228381041666665 -56.728381041666665 32.728381041666665 61.228381041666651 -56.728381041666665 32.728381041666665 #
integer_attrib-name_attrib-gen-attrib $-1 -1 $172 $-1 $63 2 4 2 1 1 1 1 1 1 1 1 1 1 1 0 1 1 1 @10 FEM_edgeId 8 #
vertex $-1 -1 -1 $-1 $63 $173 #
vertex $-1 -1 -1 $-1 $63 $174 #
straight-curve $-1 -1 -1 $-1 61.228381041666651 -0.24999999999999289 32.728381041666665 0 1 0 I I #
coedge $-1 -1 -1 $-1 $65 $64 $175 $176 forward $28 $-1 #
coedge $-1 -1 -1 $-1 $66 $175 $177 $112 reversed $116 $-1 #
edge $178 -1 -1 $-1 $119 0 $179 50.000000000000007 $177 $180 forward @7 unknown T -30 -25 0 -29.999999999999996 25.000000000000007 0 #
coedge $-1 -1 -1 $-1 $175 $66 $181 $114 reversed $116 $-1 #
edge $182 -1 -1 $-1 $183 0 $118 49.999999999999993 $181 $184 forward @7 unknown T 29.999999999999986 -24.999999999999986 0 29.999999999999989 25.000000000000007 0 #
coedge $-1 -1 -1 $-1 $185 $186 $41 $67 forward $187 $-1 #
loop $-1 -1 -1 $-1 $-1 $111 $142 T -30 -25 0 29.999999999999989 25.000000000000007 0 unknown #
integer_attrib-name_attrib-gen-attrib $-1 -1 $188 $-1 $67 2 4 2 1 1 1 1 1 1 1 1 1 1 1 0 1 1 1 @10 FEM_edgeId 4 #
vertex $-1 -1 -1 $-1 $67 $189 #
vertex $-1 -1 -1 $-1 $112 $190 #
straight-curve $-1 -1 -1 $-1 29.999999999999986 25.000000000000007 0 -1 0 0 I I #
coedge $-1 -1 -1 $-1 $100 $98 $68 $122 reversed $57 $-1 #
edge $191 -1 -1 $-1 $125 -56.478381041666673 $130 56.478381041666673 $121 $192 forward @7 unknown T -61.228381041666665 -56.728381041666665 0 -61.228381041666665 56.22838104166668 0 #
coedge $-1 -1 -1 $-1 $99 $69 $74 $133 reversed $38 $-1 #
integer_attrib-name_attrib-gen-attrib $-1 -1 $193 $-1 $70 2 4 2 1 1 1 1 1 1 1 1 1 1 1 0 1 1 1 @10 FEM_edgeId 1 #
vertex $-1 -1 -1 $-1 $122 $194 #
straight-curve $-1 -1 -1 $-1 -7.1054273576010019e-15 -56.728381041666665 0 -1 0 0 I I #
coedge $-1 -1 -1 $-1 $103 $71 $98 $162 reversed $92 $-1 #
coedge $-1 -1 -1 $-1 $71 $103 $73 $132 forward $92 $-1 #
integer_attrib-name_attrib-gen-attrib $-1 -1 $195 $-1 $72 2 4 2 1 1 1 1 1 1 1 1 1 1 1 0 1 1 1 @10 FEM_edgeId 3 #
vertex $-1 -1 -1 $-1 $72 $196 #
straight-curve $-1 -1 -1 $-1 -7.1054273576010019e-15 56.22838104166668 0 1 0 0 I I #
edge $197 -1 -1 $-1 $108 -16.364190520833333 $77 16.364190520833333 $73 $198 forward @7 unknown T 61.228381041666651 56.22838104166668 0 61.228381041666651 56.22838104166668 32.728381041666665 #
edge $199 -1 -1 $-1 $107 -16.364190520833333 $78 16.364190520833333 $74 $200 forward @7 unknown T 61.228381041666651 -56.728381041666665 0 61.228381041666651 -56.728381041666665 32.728381041666665 #
integer_attrib-name_attrib-gen-attrib $-1 -1 $201 $76 $45 2 1 1 1 1 1 1 1 1 1 1 1 1 1 0 1 1 1 @5 jsint 0 #
point $-1 -1 -1 $-1 61.228381041666651 56.22838104166668 0 #
point $-1 -1 -1 $-1 61.228381041666651 -56.728381041666665 0 #
string_attrib-name_attrib-gen-attrib $-1 -1 $-1 $80 $0 2 1 1 1 1 1 1 1 1 1 1 1 1 1 0 1 1 1 @8 FEM_name @9 substrate #
cface_col_att-cface_vol_att-ct-attrib $-1 -1 $-1 $81 $48 1 1 1 1 1 1 1 1 1 1 1 1 1 1 0 1 1 1 3 #
cface_col_att-cface_vol_att-ct-attrib $-1 -1 $-1 $-1 $82 1 1 1 1 1 1 1 1 1 1 1 1 1 1 0 1 1 1 3 #
cface $202 -1 $203 $21 $142 0 #
integer_attrib-name_attrib-gen-attrib $-1 -1 $204 $-1 $83 2 4 2 1 1 1 1 1 1 1 1 1 1 1 0 1 1 1 @10 FEM_faceId 12 #
face $205 -1 -1 $-1 $-1 $116 $7 $-1 $206 reversed single T -30 -25 0 29.999999999999989 25.000000000000007 0 F #
loop $-1 -1 -1 $-1 $-1 $207 $83 T -11 -24.999999999999993 1.5 10.999999999999996 11.000000000000005 1.5 unknown #
plane-surface $-1 -1 -1 $-1 -5.3143898831643853e-15 4.4408920985006262e-15 1.5 0 0 1 1 0 0 forward_v I I I I #
integer_attrib-name_attrib-gen-attrib $-1 -1 $208 $84 $49 2 1 1 1 1 1 1 1 1 1 1 1 1 1 0 1 1 1 @5 ngint 10 #
integer_attrib-name_attrib-gen-attrib $-1 -1 $209 $-1 $85 2 4 2 1 1 1 1 1 1 1 1 1 1 1 0 1 1 1 @10 FEM_faceId 11 #
loop $-1 -1 -1 $-1 $-1 $210 $85 T -30 -25 0 -29.999999999999996 25.000000000000007 1.5 unknown #
plane-surface $-1 -1 -1 $-1 -30 3.5527136788005009e-15 0 -1 7.1054273576010008e-17 0 -7.1054273576010008e-17 -1 0 forward_v I I I I #
coedge $-1 -1 -1 $-1 $211 $212 $213 $214 forward $86 $-1 #
cface_col_att-cface_vol_att-ct-attrib $-1 -1 $-1 $-1 $89 1 1 1 1 1 1 1 1 1 1 1 1 1 1 0 1 1 1 1 #
cface $215 -1 $94 $14 $91 0 #
integer_attrib-name_attrib-gen-attrib $-1 -1 $216 $90 $52 2 1 1 1 1 1 1 1 1 1 1 1 1 1 0 1 1 1 @5 ngint 4 #
integer_attrib-name_attrib-gen-attrib $-1 -1 $217 $-1 $91 2 4 2 1 1 1 1 1 1 1 1 1 1 1 0 1 1 1 @10 FEM_faceId 5 #
face $218 -1 -1 $-1 $219 $220 $7 $-1 $221 forward double in T -1.650000000000003 -25.499999999999993 1.5 1.649999999999995 -24.999999999999993 1.5 F #
plane-surface $-1 -1 -1 $-1 61.228381041666651 -0.24999999999999289 16.364190520833333 -1 0 0 0 0 1 forward_v I I I I #
cface_col_att-cface_vol_att-ct-attrib $-1 -1 $-1 $-1 $94 1 1 1 1 1 1 1 1 1 1 1 1 1 1 0 1 1 1 1 #
cface $-1 -1 $222 $14 $85 1 #
integer_attrib-name_attrib-gen-attrib $-1 -1 $-1 $95 $16 2 1 1 1 1 1 1 1 1 1 1 1 1 1 0 1 1 1 @5 ngint 8 #
integer_attrib-name_attrib-gen-attrib $-1 -1 $223 $96 $25 2 4 2 1 1 1 1 1 1 1 1 1 1 1 0 1 1 1 @9 FEM_bbfId 2 #
cface_ptr-ct-attrib $-1 -1 $224 $97 $37 1 1 1 1 1 1 1 1 1 1 1 1 0 1 0 1 1 1 $-1 $51 #
coedge $-1 -1 -1 $-1 $98 $100 $102 $166 reversed $57 $-1 #
edge $225 -1 -1 $-1 $168 -16.364190520833333 $130 16.364190520833333 $127 $226 forward @7 unknown T -61.228381041666665 56.22838104166668 0 -61.228381041666665 56.22838104166668 32.728381041666665 #
integer_attrib-name_attrib-gen-attrib $-1 -1 $227 $-1 $101 2 4 2 1 1 1 1 1 1 1 1 1 1 1 0 1 1 1 @10 FEM_edgeId 12 #
vertex $-1 -1 -1 $-1 $166 $228 #
straight-curve $-1 -1 -1 $-1 -61.228381041666665 -56.728381041666665 16.364190520833333 0 0 -1 I I #
edge $229 -1 -1 $-1 $168 -56.478381041666673 $164 56.478381041666673 $161 $230 forward @7 unknown T -61.228381041666665 -56.728381041666665 32.728381041666665 -61.228381041666665 56.22838104166668 32.728381041666665 #
integer_attrib-name_attrib-gen-attrib $-1 -1 $231 $-1 $104 2 4 2 1 1 1 1 1 1 1 1 1 1 1 0 1 1 1 @10 FEM_edgeId 9 #
vertex $-1 -1 -1 $-1 $104 $232 #
straight-curve $-1 -1 -1 $-1 -7.1054273576010019e-15 56.22838104166668 32.728381041666665 -1 0 0 I I #
integer_attrib-name_attrib-gen-attrib $-1 -1 $233 $-1 $105 2 4 2 1 1 1 1 1 1 1 1 1 1 1 0 1 1 1 @10 FEM_edgeId 11 #
straight-curve $-1 -1 -1 $-1 -7.1054273576010019e-15 -56.728381041666665 32.728381041666665 1 0 0 I I #
integer_attrib-name_attrib-gen-attrib $-1 -1 $234 $106 $63 2 1 1 1 1 1 1 1 1 1 1 1 1 1 0 1 1 1 @5 jsint 8 #
point $-1 -1 -1 $-1 61.228381041666651 -56.728381041666665 32.728381041666665 #
point $-1 -1 -1 $-1 61.228381041666651 56.22838104166668 32.728381041666665 #
coedge $-1 -1 -1 $-1 $111 $113 $235 $176 reversed $116 $-1 #
edge $236 -1 -1 $-1 $179 0 $183 59.999999999999986 $235 $237 forward @7 unknown T -30 -25 0 29.999999999999989 -24.999999999999986 0 #
coedge $-1 -1 -1 $-1 $238 $239 $64 $112 forward $147 $-1 #
integer_attrib-name_attrib-gen-attrib $-1 -1 $240 $-1 $112 2 4 2 1 1 1 1 1 1 1 1 1 1 1 0 1 1 1 @10 FEM_edgeId 5 #
vertex $-1 -1 -1 $-1 $112 $241 #
straight-curve $-1 -1 -1 $-1 -29.999999999999996 25.000000000000007 0 -7.1054273576010008e-17 -1 0 I I #
coedge $-1 -1 -1 $-1 $242 $243 $65 $114 forward $244 $-1 #
integer_attrib-name_attrib-gen-attrib $-1 -1 $245 $-1 $114 2 4 2 1 1 1 1 1 1 1 1 1 1 1 0 1 1 1 @10 FEM_edgeId 7 #
vertex $-1 -1 -1 $-1 $114 $246 #
straight-curve $-1 -1 -1 $-1 29.999999999999989 -24.999999999999986 0 -7.1054273576010032e-17 1 0 I I #
coedge $-1 -1 -1 $-1 $247 $115 $239 $248 forward $187 $-1 #
coedge $-1 -1 -1 $-1 $115 $247 $242 $249 reversed $187 $-1 #
loop $-1 -1 -1 $-1 $-1 $247 $250 T -30 25.000000000000007 0 29.999999999999986 25.000000000000007 1.5 unknown #
integer_attrib-name_attrib-gen-attrib $-1 -1 $251 $117 $67 2 1 1 1 1 1 1 1 1 1 1 1 1 1 0 1 1 1 @5 jsint 4 #
point $-1 -1 -1 $-1 29.999999999999986 25.000000000000007 0 #
point $-1 -1 -1 $-1 -29.999999999999996 25.000000000000007 0 #
integer_attrib-name_attrib-gen-attrib $-1 -1 $252 $-1 $122 2 4 2 1 1 1 1 1 1 1 1 1 1 1 0 1 1 1 @10 FEM_edgeId 2 #
straight-curve $-1 -1 -1 $-1 -61.228381041666665 -0.24999999999999289 0 0 1 0 I I #
integer_attrib-name_attrib-gen-attrib $-1 -1 $253 $124 $70 2 1 1 1 1 1 1 1 1 1 1 1 1 1 0 1 1 1 @5 jsint 1 #
point $-1 -1 -1 $-1 -61.228381041666665 -56.728381041666665 0 #
integer_attrib-name_attrib-gen-attrib $-1 -1 $254 $129 $72 2 1 1 1 1 1 1 1 1 1 1 1 1 1 0 1 1 1 @5 jsint 3 #
point $-1 -1 -1 $-1 -61.228381041666665 56.22838104166668 0 #
integer_attrib-name_attrib-gen-attrib $-1 -1 $255 $-1 $132 2 4 2 1 1 1 1 1 1 1 1 1 1 1 0 1 1 1 @10 FEM_edgeId 15 #
straight-curve $-1 -1 -1 $-1 61.228381041666651 56.22838104166668 16.364190520833333 0 0 -1 I I #
integer_attrib-name_attrib-gen-attrib $-1 -1 $256 $-1 $133 2 4 2 1 1 1 1 1 1 1 1 1 1 1 0 1 1 1 @10 FEM_edgeId 13 #
straight-curve $-1 -1 -1 $-1 61.228381041666651 -56.728381041666665 16.364190520833333 0 0 -1 I I #
integer_attrib-name_attrib-gen-attrib $-1 -1 $-1 $134 $45 2 1 1 1 1 1 1 1 1 1 1 1 1 1 0 1 1 1 @5 jsint 32 #
cface_col_att-cface_vol_att-ct-attrib $-1 -1 $257 $-1 $140 1 1 1 1 1 1 1 1 1 1 1 1 1 1 0 1 1 1 1 #
cface $258 -1 $259 $21 $260 0 #
integer_attrib-name_attrib-gen-attrib $-1 -1 $261 $141 $83 2 1 1 1 1 1 1 1 1 1 1 1 1 1 0 1 1 1 @5 ngint 12 #
integer_attrib-name_attrib-gen-attrib $-1 -1 $262 $-1 $142 2 4 2 1 1 1 1 1 1 1 1 1 1 1 0 1 1 1 @10 FEM_faceId 13 #
plane-surface $-1 -1 -1 $-1 -5.3143898831643853e-15 4.4408920985006262e-15 0 0 0 1 1 0 0 forward_v I I I I #
coedge $-1 -1 -1 $-1 $263 $264 $265 $266 reversed $143 $-1 #
cface_ptr-ct-attrib $-1 -1 $267 $145 $49 1 1 1 1 1 1 1 1 1 1 1 1 0 1 0 1 1 1 $268 $31 #
integer_attrib-name_attrib-gen-attrib $-1 -1 $269 $146 $85 2 1 1 1 1 1 1 1 1 1 1 1 1 1 0 1 1 1 @5 ngint 11 #
coedge $-1 -1 -1 $-1 $239 $238 $270 $271 forward $147 $-1 #
coedge $-1 -1 -1 $-1 $272 $149 $273 $274 forward $86 $-1 #
coedge $-1 -1 -1 $-1 $149 $235 $243 $275 forward $86 $-1 #
coedge $-1 -1 -1 $-1 $276 $277 $149 $214 reversed $278 $-1 #
edge $279 -1 -1 $-1 $280 -59.999999999999986 $281 -31.649999999999995 $149 $282 forward @7 unknown T 1.6499999999999941 -24.999999999999993 1.5 29.999999999999989 -24.999999999999986 1.5 #
cface_col_att-cface_vol_att-ct-attrib $-1 -1 $-1 $-1 $151 1 1 1 1 1 1 1 1 1 1 1 1 1 1 0 1 1 1 1 #
cface_ptr-ct-attrib $-1 -1 $283 $152 $52 1 1 1 1 1 1 1 1 1 1 1 1 0 1 0 1 1 1 $-1 $33 #
integer_attrib-name_attrib-gen-attrib $-1 -1 $284 $153 $91 2 1 1 1 1 1 1 1 1 1 1 1 1 1 0 1 1 1 @5 ngint 5 #
integer_attrib-name_attrib-gen-attrib $-1 -1 $285 $-1 $154 2 4 2 1 1 1 1 1 1 1 1 1 1 1 0 1 1 1 @10 FEM_faceId 6 #
face $286 -1 -1 $-1 $250 $278 $7 $-1 $144 forward double in T -30 -25 1.5 29.999999999999989 25.000000000000007 1.5 F #
loop $-1 -1 -1 $-1 $-1 $273 $154 T -1.650000000000003 -25.499999999999993 1.5 1.649999999999995 -24.999999999999993 1.5 unknown #
plane-surface $-1 -1 -1 $-1 -1.7763568394002505e-15 -5.2992805755395676 1.5 0 0 1 1 0 0 forward_v I I I I #
cface $-1 -1 $287 $14 $250 1 #
integer_attrib-name_attrib-gen-attrib $-1 -1 $-1 $159 $25 2 1 1 1 1 1 1 1 1 1 1 1 1 1 0 1 1 1 @5 ngint 10 #
integer_attrib-name_attrib-gen-attrib $-1 -1 $288 $160 $37 2 4 2 1 1 1 1 1 1 1 1 1 1 1 0 1 1 1 @9 FEM_bbfId 0 #
integer_attrib-name_attrib-gen-attrib $-1 -1 $289 $-1 $162 2 4 2 1 1 1 1 1 1 1 1 1 1 1 0 1 1 1 @10 FEM_edgeId 14 #
straight-curve $-1 -1 -1 $-1 -61.228381041666665 56.22838104166668 16.364190520833333 0 0 -1 I I #
integer_attrib-name_attrib-gen-attrib $-1 -1 $290 $163 $101 2 1 1 1 1 1 1 1 1 1 1 1 1 1 0 1 1 1 @5 jsint 12 #
point $-1 -1 -1 $-1 -61.228381041666665 -56.728381041666665 32.728381041666665 #
integer_attrib-name_attrib-gen-attrib $-1 -1 $291 $-1 $166 2 4 2 1 1 1 1 1 1 1 1 1 1 1 0 1 1 1 @10 FEM_edgeId 10 #
straight-curve $-1 -1 -1 $-1 -61.228381041666665 -0.24999999999999289 32.728381041666665 0 -1 0 I I #
integer_attrib-name_attrib-gen-attrib $-1 -1 $292 $167 $104 2 1 1 1 1 1 1 1 1 1 1 1 1 1 0 1 1 1 @5 jsint 9 #
point $-1 -1 -1 $-1 -61.228381041666665 56.22838104166668 32.728381041666665 #
integer_attrib-name_attrib-gen-attrib $-1 -1 $293 $170 $105 2 1 1 1 1 1 1 1 1 1 1 1 1 1 0 1 1 1 @5 jsint 11 #
integer_attrib-name_attrib-gen-attrib $-1 -1 $-1 $172 $63 2 1 1 1 1 1 1 1 1 1 1 1 1 1 0 1 1 1 @5 jsint 28 #
coedge $-1 -1 -1 $-1 $212 $294 $110 $176 forward $86 $-1 #
integer_attrib-name_attrib-gen-attrib $-1 -1 $295 $-1 $176 2 4 2 1 1 1 1 1 1 1 1 1 1 1 0 1 1 1 @10 FEM_edgeId 6 #
straight-curve $-1 -1 -1 $-1 -30 -25 0 1 2.3684757858670011e-16 0 I I #
coedge $-1 -1 -1 $-1 $210 $177 $294 $296 forward $147 $-1 #
coedge $-1 -1 -1 $-1 $177 $210 $185 $248 reversed $147 $-1 #
integer_attrib-name_attrib-gen-attrib $-1 -1 $297 $178 $112 2 1 1 1 1 1 1 1 1 1 1 1 1 1 0 1 1 1 @5 jsint 5 #
point $-1 -1 -1 $-1 -30 -25 0 #
coedge $-1 -1 -1 $-1 $298 $181 $186 $249 forward $244 $-1 #
coedge $-1 -1 -1 $-1 $181 $298 $212 $275 reversed $244 $-1 #
loop $-1 -1 -1 $-1 $-1 $298 $260 T 29.999999999999986 -24.999999999999986 0 29.999999999999989 25.000000000000007 1.5 unknown #
integer_attrib-name_attrib-gen-attrib $-1 -1 $299 $182 $114 2 1 1 1 1 1 1 1 1 1 1 1 1 1 0 1 1 1 @5 jsint 7 #
point $-1 -1 -1 $-1 29.999999999999989 -24.999999999999986 0 #
coedge $-1 -1 -1 $-1 $186 $185 $300 $301 forward $187 $-1 #
edge $302 -1 -1 $-1 $119 0 $303 1.5 $185 $304 forward @7 unknown T -29.999999999999996 25.000000000000007 0 -29.999999999999996 25.000000000000007 1.5 #
edge $305 -1 -1 $-1 $118 0 $306 1.5 $242 $307 forward @7 unknown T 29.999999999999986 25.000000000000007 0 29.999999999999986 25.000000000000007 1.5 #
face $308 -1 -1 $-1 $260 $187 $7 $-1 $309 forward double in T -30 25.000000000000007 0 29.999999999999986 25.000000000000007 1.5 F #
integer_attrib-name_attrib-gen-attrib $-1 -1 $-1 $188 $67 2 1 1 1 1 1 1 1 1 1 1 1 1 1 0 1 1 1 @5 jsint 2 #
integer_attrib-name_attrib-gen-attrib $-1 -1 $310 $191 $122 2 1 1 1 1 1 1 1 1 1 1 1 1 1 0 1 1 1 @5 jsint 2 #
integer_attrib-name_attrib-gen-attrib $-1 -1 $-1 $193 $70 2 1 1 1 1 1 1 1 1 1 1 1 1 1 0 1 1 1 @5 jsint 33 #
integer_attrib-name_attrib-gen-attrib $-1 -1 $-1 $195 $72 2 1 1 1 1 1 1 1 1 1 1 1 1 1 0 1 1 1 @5 jsint 35 #
integer_attrib-name_attrib-gen-attrib $-1 -1 $311 $197 $132 2 1 1 1 1 1 1 1 1 1 1 1 1 1 0 1 1 1 @5 jsint 15 #
integer_attrib-name_attrib-gen-attrib $-1 -1 $312 $199 $133 2 1 1 1 1 1 1 1 1 1 1 1 1 1 0 1 1 1 @5 jsint 13 #
cface_col_att-cface_vol_att-ct-attrib $-1 -1 $313 $202 $140 1 1 1 1 1 1 1 1 1 1 1 1 1 1 0 1 1 1 -2 #
cface_col_att-cface_vol_att-ct-attrib $-1 -1 $-1 $-1 $203 1 1 1 1 1 1 1 1 1 1 1 1 1 1 0 1 1 1 3 #
cface $314 -1 $315 $21 $219 0 #
face $316 -1 -1 $-1 $49 $244 $7 $-1 $317 forward double in T 29.999999999999986 -24.999999999999986 0 29.999999999999989 25.000000000000007 1.5 F #
cface_ptr-ct-attrib $-1 -1 $318 $204 $83 1 1 1 1 1 1 1 1 1 1 1 1 0 1 0 1 1 1 $319 $48 #
integer_attrib-name_attrib-gen-attrib $-1 -1 $320 $205 $142 2 1 1 1 1 1 1 1 1 1 1 1 1 1 0 1 1 1 @5 ngint 13 #
coedge $-1 -1 -1 $-1 $321 $207 $211 $274 reversed $143 $-1 #
coedge $-1 -1 -1 $-1 $207 $322 $323 $324 reversed $143 $-1 #
coedge $-1 -1 -1 $-1 $323 $325 $207 $266 forward $278 $-1 #
edge $326 -1 -1 $-1 $327 0.5 $328 20 $265 $329 forward @7 unknown T -1.650000000000003 -24.999999999999993 1.5 -1.650000000000003 -5.4999999999999929 1.5 #
integer_attrib-name_attrib-gen-attrib $-1 -1 $-1 $208 $49 2 1 1 1 1 1 1 1 1 1 1 1 1 1 0 1 1 1 @5 ngint 2 #
cface $-1 -1 $330 $14 $49 1 #
cface_ptr-ct-attrib $-1 -1 $331 $209 $85 1 1 1 1 1 1 1 1 1 1 1 1 0 1 0 1 1 1 $157 $82 #
coedge $-1 -1 -1 $-1 $325 $300 $210 $271 reversed $278 $-1 #
edge $332 -1 -1 $-1 $333 -50.000000000000007 $303 0 $210 $334 forward @7 unknown T -30 -25 1.5 -29.999999999999996 25.000000000000007 1.5 #
coedge $-1 -1 -1 $-1 $294 $211 $325 $335 forward $86 $-1 #
coedge $-1 -1 -1 $-1 $336 $337 $263 $274 forward $220 $-1 #
edge $338 -1 -1 $-1 $281 -31.649999999999995 $327 -28.349999999999998 $211 $282 forward @7 unknown T -1.650000000000003 -24.999999999999993 1.5 1.649999999999995 -24.999999999999993 1.5 #
edge $339 -1 -1 $-1 $183 0 $280 1.5 $212 $340 forward @7 unknown T 29.999999999999989 -24.999999999999986 0 29.999999999999989 -24.999999999999986 1.5 #
coedge $-1 -1 -1 $-1 $300 $213 $298 $341 reversed $278 $-1 #
coedge $-1 -1 -1 $-1 $213 $342 $321 $343 forward $278 $-1 #
loop $-1 -1 -1 $-1 $-1 $265 $219 T -30 -25 1.5 29.999999999999989 25.000000000000007 1.5 unknown #
integer_attrib-name_attrib-gen-attrib $-1 -1 $344 $-1 $214 2 4 2 1 1 1 1 1 1 1 1 1 1 1 0 1 1 1 @10 FEM_edgeId 31 #
vertex $-1 -1 -1 $-1 $275 $345 #
vertex $-1 -1 -1 $-1 $274 $346 #
straight-curve $-1 -1 -1 $-1 -30 -25 1.5 -1 -2.3684757858670011e-16 -0 I I #
integer_attrib-name_attrib-gen-attrib $-1 -1 $347 $216 $52 2 4 2 1 1 1 1 1 1 1 1 1 1 1 0 1 1 1 @9 FEM_bbfId 3 #
cface_ptr-ct-attrib $-1 -1 $348 $217 $91 1 1 1 1 1 1 1 1 1 1 1 1 0 1 0 1 1 1 $-1 $151 #
integer_attrib-name_attrib-gen-attrib $-1 -1 $349 $218 $154 2 1 1 1 1 1 1 1 1 1 1 1 1 1 0 1 1 1 @5 ngint 6 #
integer_attrib-name_attrib-gen-attrib $-1 -1 $350 $-1 $219 2 4 2 1 1 1 1 1 1 1 1 1 1 1 0 1 1 1 @10 FEM_faceId 7 #
cface $-1 -1 $268 $14 $260 1 #
integer_attrib-name_attrib-gen-attrib $-1 -1 $-1 $224 $37 2 1 1 1 1 1 1 1 1 1 1 1 1 1 0 1 1 1 @5 ngint 11 #
integer_attrib-name_attrib-gen-attrib $-1 -1 $351 $225 $162 2 1 1 1 1 1 1 1 1 1 1 1 1 1 0 1 1 1 @5 jsint 14 #
integer_attrib-name_attrib-gen-attrib $-1 -1 $-1 $227 $101 2 1 1 1 1 1 1 1 1 1 1 1 1 1 0 1 1 1 @5 jsint 36 #
integer_attrib-name_attrib-gen-attrib $-1 -1 $352 $229 $166 2 1 1 1 1 1 1 1 1 1 1 1 1 1 0 1 1 1 @5 jsint 10 #
integer_attrib-name_attrib-gen-attrib $-1 -1 $-1 $231 $104 2 1 1 1 1 1 1 1 1 1 1 1 1 1 0 1 1 1 @5 jsint 29 #
integer_attrib-name_attrib-gen-attrib $-1 -1 $-1 $233 $105 2 1 1 1 1 1 1 1 1 1 1 1 1 1 0 1 1 1 @5 jsint 31 #
coedge $-1 -1 -1 $-1 $235 $272 $238 $296 reversed $86 $-1 #
integer_attrib-name_attrib-gen-attrib $-1 -1 $353 $236 $176 2 1 1 1 1 1 1 1 1 1 1 1 1 1 0 1 1 1 @5 jsint 6 #
edge $354 -1 -1 $-1 $179 0 $333 1.5 $238 $355 forward @7 unknown T -30 -25 0 -30 -25 1.5 #
integer_attrib-name_attrib-gen-attrib $-1 -1 $-1 $240 $112 2 1 1 1 1 1 1 1 1 1 1 1 1 1 0 1 1 1 @5 jsint 11 #
coedge $-1 -1 -1 $-1 $243 $242 $276 $341 forward $244 $-1 #
integer_attrib-name_attrib-gen-attrib $-1 -1 $-1 $245 $114 2 1 1 1 1 1 1 1 1 1 1 1 1 1 0 1 1 1 @5 jsint 6 #
coedge $-1 -1 -1 $-1 $270 $276 $247 $301 reversed $278 $-1 #
edge $356 -1 -1 $-1 $303 -59.999999999999986 $306 0 $247 $357 forward @7 unknown T -30 25.000000000000007 1.5 29.999999999999986 25.000000000000007 1.5 #
integer_attrib-name_attrib-gen-attrib $-1 -1 $358 $-1 $248 2 4 2 1 1 1 1 1 1 1 1 1 1 1 0 1 1 1 @10 FEM_edgeId 37 #
vertex $-1 -1 -1 $-1 $248 $359 #
straight-curve $-1 -1 -1 $-1 -29.999999999999996 25.000000000000007 0 0 0 1 I I #
integer_attrib-name_attrib-gen-attrib $-1 -1 $360 $-1 $249 2 4 2 1 1 1 1 1 1 1 1 1 1 1 0 1 1 1 @10 FEM_edgeId 36 #
vertex $-1 -1 -1 $-1 $249 $361 #
straight-curve $-1 -1 -1 $-1 29.999999999999986 25.000000000000007 0 0 0 1 I I #
integer_attrib-name_attrib-gen-attrib $-1 -1 $362 $-1 $250 2 4 2 1 1 1 1 1 1 1 1 1 1 1 0 1 1 1 @10 FEM_faceId 8 #
plane-surface $-1 -1 -1 $-1 -7.1054273576010019e-15 25.000000000000007 0 0 1 -0 -1 0 0 forward_v I I I I #
integer_attrib-name_attrib-gen-attrib $-1 -1 $-1 $252 $122 2 1 1 1 1 1 1 1 1 1 1 1 1 1 0 1 1 1 @5 jsint 34 #
integer_attrib-name_attrib-gen-attrib $-1 -1 $-1 $255 $132 2 1 1 1 1 1 1 1 1 1 1 1 1 1 0 1 1 1 @5 jsint 39 #
integer_attrib-name_attrib-gen-attrib $-1 -1 $-1 $256 $133 2 1 1 1 1 1 1 1 1 1 1 1 1 1 0 1 1 1 @5 jsint 37 #
cface_col_att-cface_vol_att-ct-attrib $-1 -1 $-1 $257 $140 1 1 1 1 1 1 1 1 1 1 1 1 1 1 0 1 1 1 3 #
cface_col_att-cface_vol_att-ct-attrib $-1 -1 $-1 $-1 $259 1 1 1 1 1 1 1 1 1 1 1 1 1 1 0 1 1 1 3 #
cface $363 -1 $-1 $21 $250 0 #
integer_attrib-name_attrib-gen-attrib $-1 -1 $364 $-1 $260 2 4 2 1 1 1 1 1 1 1 1 1 1 1 0 1 1 1 @10 FEM_faceId 9 #
plane-surface $-1 -1 -1 $-1 29.999999999999986 1.0658141036401503e-14 0 1 7.1054273576010032e-17 -0 -7.1054273576010032e-17 1 0 forward_v I I I I #
integer_attrib-name_attrib-gen-attrib $-1 -1 $-1 $261 $83 2 1 1 1 1 1 1 1 1 1 1 1 1 1 0 1 1 1 @5 ngint 4 #
cface $-1 -1 $365 $14 $83 1 #
integer_attrib-name_attrib-gen-attrib $-1 -1 $366 $262 $142 2 4 2 1 1 1 1 1 1 1 1 1 1 1 0 1 1 1 @9 FEM_bbfId 4 #
coedge $-1 -1 -1 $-1 $367 $263 $277 $343 reversed $143 $-1 #
coedge $-1 -1 -1 $-1 $264 $368 $369 $370 reversed $143 $-1 #
coedge $-1 -1 -1 $-1 $369 $265 $264 $324 forward $278 $-1 #
edge $371 -1 -1 $-1 $328 0 $372 2.0000000000000009 $323 $373 forward @7 unknown T -3.6500000000000039 -5.4999999999999947 1.5 -1.650000000000003 -5.4999999999999947 1.5 #
coedge $-1 -1 -1 $-1 $265 $270 $272 $335 reversed $278 $-1 #
integer_attrib-name_attrib-gen-attrib $-1 -1 $374 $-1 $266 2 4 2 1 1 1 1 1 1 1 1 1 1 1 0 1 1 1 @10 FEM_edgeId 20 #
vertex $-1 -1 -1 $-1 $335 $375 #
vertex $-1 -1 -1 $-1 $324 $376 #
straight-curve $-1 -1 -1 $-1 -1.650000000000003 -25.499999999999993 1.5 0 1 0 F 0 F 20 #
cface $-1 -1 $377 $14 $219 1 #
integer_attrib-name_attrib-gen-attrib $-1 -1 $-1 $269 $85 2 1 1 1 1 1 1 1 1 1 1 1 1 1 0 1 1 1 @5 ngint 3 #
integer_attrib-name_attrib-gen-attrib $-1 -1 $378 $-1 $271 2 4 2 1 1 1 1 1 1 1 1 1 1 1 0 1 1 1 @10 FEM_edgeId 34 #
vertex $-1 -1 -1 $-1 $296 $379 #
straight-curve $-1 -1 -1 $-1 -29.999999999999996 25.000000000000007 1.5 7.1054273576010008e-17 1 0 I I #
edge $380 -1 -1 $-1 $327 -28.349999999999998 $333 -0 $272 $282 forward @7 unknown T -30 -25 1.5 -1.6500000000000021 -24.999999999999993 1.5 #
coedge $-1 -1 -1 $-1 $381 $273 $-1 $382 reversed $220 $-1 #
coedge $-1 -1 -1 $-1 $273 $381 $-1 $383 reversed $220 $-1 #
integer_attrib-name_attrib-gen-attrib $-1 -1 $384 $-1 $274 2 4 2 1 1 1 1 1 1 1 1 1 1 1 0 1 1 1 @10 FEM_edgeId 16 #
integer_attrib-name_attrib-gen-attrib $-1 -1 $385 $-1 $275 2 4 2 1 1 1 1 1 1 1 1 1 1 1 0 1 1 1 @10 FEM_edgeId 38 #
straight-curve $-1 -1 -1 $-1 29.999999999999989 -24.999999999999986 0 0 0 1 I I #
edge $386 -1 -1 $-1 $306 -49.999999999999993 $280 0 $298 $387 forward @7 unknown T 29.999999999999986 -24.999999999999986 1.5 29.999999999999989 25.000000000000007 1.5 #
coedge $-1 -1 -1 $-1 $277 $388 $367 $389 forward $278 $-1 #
edge $390 -1 -1 $-1 $391 0 $281 19.5 $277 $392 forward @7 unknown T 1.6499999999999941 -24.999999999999993 1.5 1.6499999999999941 -5.4999999999999947 1.5 #
integer_attrib-name_attrib-gen-attrib $-1 -1 $393 $279 $214 2 1 1 1 1 1 1 1 1 1 1 1 1 1 0 1 1 1 @5 jsint 31 #
point $-1 -1 -1 $-1 29.999999999999989 -24.999999999999986 1.5 #
point $-1 -1 -1 $-1 1.6499999999999941 -24.999999999999993 1.5 #
integer_attrib-name_attrib-gen-attrib $-1 -1 $-1 $283 $52 2 1 1 1 1 1 1 1 1 1 1 1 1 1 0 1 1 1 @5 ngint 12 #
integer_attrib-name_attrib-gen-attrib $-1 -1 $394 $284 $91 2 4 2 1 1 1 1 1 1 1 1 1 1 1 0 1 1 1 @9 FEM_bbfId 1 #
cface_ptr-ct-attrib $-1 -1 $395 $285 $154 1 1 1 1 1 1 1 1 1 1 1 1 0 1 0 1 1 1 $365 $377 #
integer_attrib-name_attrib-gen-attrib $-1 -1 $396 $286 $219 2 1 1 1 1 1 1 1 1 1 1 1 1 1 0 1 1 1 @5 ngint 7 #
integer_attrib-name_attrib-gen-attrib $-1 -1 $-1 $289 $162 2 1 1 1 1 1 1 1 1 1 1 1 1 1 0 1 1 1 @5 jsint 38 #
integer_attrib-name_attrib-gen-attrib $-1 -1 $-1 $291 $166 2 1 1 1 1 1 1 1 1 1 1 1 1 1 0 1 1 1 @5 jsint 30 #
integer_attrib-name_attrib-gen-attrib $-1 -1 $-1 $295 $176 2 1 1 1 1 1 1 1 1 1 1 1 1 1 0 1 1 1 @5 jsint 9 #
integer_attrib-name_attrib-gen-attrib $-1 -1 $397 $-1 $296 2 4 2 1 1 1 1 1 1 1 1 1 1 1 0 1 1 1 @10 FEM_edgeId 39 #
straight-curve $-1 -1 -1 $-1 -30 -25 0 0 0 1 I I #
integer_attrib-name_attrib-gen-attrib $-1 -1 $398 $-1 $301 2 4 2 1 1 1 1 1 1 1 1 1 1 1 0 1 1 1 @10 FEM_edgeId 33 #
straight-curve $-1 -1 -1 $-1 29.999999999999986 25.000000000000007 1.5 1 0 0 I I #
integer_attrib-name_attrib-gen-attrib $-1 -1 $399 $302 $248 2 1 1 1 1 1 1 1 1 1 1 1 1 1 0 1 1 1 @5 jsint 37 #
point $-1 -1 -1 $-1 -29.999999999999996 25.000000000000007 1.5 #
integer_attrib-name_attrib-gen-attrib $-1 -1 $400 $305 $249 2 1 1 1 1 1 1 1 1 1 1 1 1 1 0 1 1 1 @5 jsint 36 #
point $-1 -1 -1 $-1 29.999999999999986 25.000000000000007 1.5 #
integer_attrib-name_attrib-gen-attrib $-1 -1 $401 $308 $250 2 1 1 1 1 1 1 1 1 1 1 1 1 1 0 1 1 1 @5 ngint 8 #
cface_col_att-cface_vol_att-ct-attrib $-1 -1 $-1 $-1 $315 1 1 1 1 1 1 1 1 1 1 1 1 1 1 0 1 1 1 3 #
integer_attrib-name_attrib-gen-attrib $-1 -1 $402 $316 $260 2 1 1 1 1 1 1 1 1 1 1 1 1 1 0 1 1 1 @5 ngint 9 #
cface $403 -1 $-1 $14 $154 1 #
cface_ptr-ct-attrib $-1 -1 $404 $320 $142 1 1 1 1 1 1 1 1 1 1 1 1 0 1 0 1 1 1 $-1 $140 #
coedge $-1 -1 -1 $-1 $405 $321 $342 $389 reversed $143 $-1 #
coedge $-1 -1 -1 $-1 $322 $406 $407 $408 reversed $143 $-1 #
coedge $-1 -1 -1 $-1 $407 $323 $322 $370 forward $278 $-1 #
edge $409 -1 -1 $-1 $372 0 $410 5.5000000000000053 $369 $411 forward @7 unknown T -3.6500000000000039 -11 1.5 -3.6500000000000021 -5.4999999999999947 1.5 #
integer_attrib-name_attrib-gen-attrib $-1 -1 $412 $-1 $324 2 4 2 1 1 1 1 1 1 1 1 1 1 1 0 1 1 1 @10 FEM_edgeId 21 #
vertex $-1 -1 -1 $-1 $370 $413 #
straight-curve $-1 -1 -1 $-1 -1.650000000000003 -5.4999999999999947 1.5 -1 0 0 F 0 F 2.0000000000000009 #
integer_attrib-name_attrib-gen-attrib $-1 -1 $-1 $326 $266 2 1 1 1 1 1 1 1 1 1 1 1 1 1 0 1 1 1 @5 jsint 20 #
point $-1 -1 -1 $-1 -1.650000000000003 -24.999999999999993 1.5 #
point $-1 -1 -1 $-1 -1.650000000000003 -5.4999999999999947 1.5 #
cface $414 -1 $319 $14 $154 0 #
integer_attrib-name_attrib-gen-attrib $-1 -1 $415 $332 $271 2 1 1 1 1 1 1 1 1 1 1 1 1 1 0 1 1 1 @5 jsint 34 #
point $-1 -1 -1 $-1 -30 -25 1.5 #
integer_attrib-name_attrib-gen-attrib $-1 -1 $416 $-1 $335 2 4 2 1 1 1 1 1 1 1 1 1 1 1 0 1 1 1 @10 FEM_edgeId 35 #
coedge $-1 -1 -1 $-1 $337 $336 $-1 $417 reversed $220 $-1 #
edge $418 -1 -1 $-1 $419 0 $327 0.5 $336 $420 forward @7 unknown T -1.650000000000003 -25.499999999999993 1.5 -1.650000000000003 -24.999999999999993 1.5 #
edge $421 -1 -1 $-1 $281 19.5 $422 20 $337 $423 forward @7 unknown T 1.6499999999999941 -25.499999999999993 1.5 1.6499999999999941 -24.999999999999993 1.5 #
integer_attrib-name_attrib-gen-attrib $-1 -1 $-1 $338 $274 2 1 1 1 1 1 1 1 1 1 1 1 1 1 0 1 1 1 @5 jsint 16 #
integer_attrib-name_attrib-gen-attrib $-1 -1 $424 $339 $275 2 1 1 1 1 1 1 1 1 1 1 1 1 1 0 1 1 1 @5 jsint 38 #
integer_attrib-name_attrib-gen-attrib $-1 -1 $425 $-1 $341 2 4 2 1 1 1 1 1 1 1 1 1 1 1 0 1 1 1 @10 FEM_edgeId 32 #
straight-curve $-1 -1 -1 $-1 29.999999999999989 -24.999999999999986 1.5 7.1054273576010032e-17 -1 0 I I #
coedge $-1 -1 -1 $-1 $342 $426 $405 $427 forward $278 $-1 #
edge $428 -1 -1 $-1 $429 0 $391 2.0000000000000027 $342 $430 forward @7 unknown T 1.6499999999999941 -5.4999999999999947 1.5 3.6499999999999968 -5.4999999999999947 1.5 #
integer_attrib-name_attrib-gen-attrib $-1 -1 $431 $-1 $343 2 4 2 1 1 1 1 1 1 1 1 1 1 1 0 1 1 1 @10 FEM_edgeId 30 #
vertex $-1 -1 -1 $-1 $343 $432 #
straight-curve $-1 -1 -1 $-1 1.6499999999999941 -5.4999999999999947 1.5 0 -1 0 F 0 F 20 #
integer_attrib-name_attrib-gen-attrib $-1 -1 $-1 $344 $214 2 1 1 1 1 1 1 1 1 1 1 1 1 1 0 1 1 1 @5 jsint 7 #
integer_attrib-name_attrib-gen-attrib $-1 -1 $-1 $348 $91 2 1 1 1 1 1 1 1 1 1 1 1 1 1 0 1 1 1 @5 ngint 13 #
integer_attrib-name_attrib-gen-attrib $-1 -1 $-1 $349 $154 2 1 1 1 1 1 1 1 1 1 1 1 1 1 0 1 1 1 @5 ngint 7 #
cface_ptr-ct-attrib $-1 -1 $-1 $350 $219 1 1 1 1 1 1 1 1 1 1 1 1 0 1 0 1 1 1 $330 $259 #
integer_attrib-name_attrib-gen-attrib $-1 -1 $433 $354 $296 2 1 1 1 1 1 1 1 1 1 1 1 1 1 0 1 1 1 @5 jsint 39 #
integer_attrib-name_attrib-gen-attrib $-1 -1 $434 $356 $301 2 1 1 1 1 1 1 1 1 1 1 1 1 1 0 1 1 1 @5 jsint 33 #
integer_attrib-name_attrib-gen-attrib $-1 -1 $-1 $358 $248 2 1 1 1 1 1 1 1 1 1 1 1 1 1 0 1 1 1 @5 jsint 3 #
integer_attrib-name_attrib-gen-attrib $-1 -1 $-1 $360 $249 2 1 1 1 1 1 1 1 1 1 1 1 1 1 0 1 1 1 @5 jsint 1 #
cface_ptr-ct-attrib $-1 -1 $435 $362 $250 1 1 1 1 1 1 1 1 1 1 1 1 0 1 0 1 1 1 $222 $315 #
cface_ptr-ct-attrib $-1 -1 $436 $364 $260 1 1 1 1 1 1 1 1 1 1 1 1 0 1 0 1 1 1 $287 $203 #
cface_col_att-cface_vol_att-ct-attrib $-1 -1 $-1 $-1 $365 1 1 1 1 1 1 1 1 1 1 1 1 1 1 0 1 1 1 -2 #
integer_attrib-name_attrib-gen-attrib $-1 -1 $-1 $366 $142 2 1 1 1 1 1 1 1 1 1 1 1 1 1 0 1 1 1 @5 ngint 5 #
coedge $-1 -1 -1 $-1 $437 $367 $388 $427 reversed $143 $-1 #
coedge $-1 -1 -1 $-1 $368 $438 $439 $440 reversed $143 $-1 #
coedge $-1 -1 -1 $-1 $439 $369 $368 $408 forward $278 $-1 #
edge $441 -1 -1 $-1 $410 0 $442 7.3499999999999979 $407 $443 forward @7 unknown T -11 -11 1.5 -3.6500000000000021 -11 1.5 #
integer_attrib-name_attrib-gen-attrib $-1 -1 $444 $-1 $370 2 4 2 1 1 1 1 1 1 1 1 1 1 1 0 1 1 1 @10 FEM_edgeId 22 #
vertex $-1 -1 -1 $-1 $408 $445 #
straight-curve $-1 -1 -1 $-1 -3.6500000000000039 -5.4999999999999947 1.5 3.229739708000452e-16 -1 0 F 0 F 5.5000000000000053 #
integer_attrib-name_attrib-gen-attrib $-1 -1 $-1 $371 $324 2 1 1 1 1 1 1 1 1 1 1 1 1 1 0 1 1 1 @5 jsint 21 #
point $-1 -1 -1 $-1 -3.6500000000000039 -5.4999999999999947 1.5 #
cface_col_att-cface_vol_att-ct-attrib $-1 -1 $-1 $-1 $377 1 1 1 1 1 1 1 1 1 1 1 1 1 1 0 1 1 1 -2 #
integer_attrib-name_attrib-gen-attrib $-1 -1 $-1 $378 $271 2 1 1 1 1 1 1 1 1 1 1 1 1 1 0 1 1 1 @5 jsint 10 #
integer_attrib-name_attrib-gen-attrib $-1 -1 $-1 $380 $335 2 1 1 1 1 1 1 1 1 1 1 1 1 1 0 1 1 1 @5 jsint 35 #
edge $446 -1 -1 $-1 $422 0 $419 3.2999999999999972 $381 $447 forward @7 unknown T -1.650000000000003 -25.499999999999993 1.5 1.6499999999999941 -25.499999999999993 1.5 #
integer_attrib-name_attrib-gen-attrib $-1 -1 $448 $-1 $382 2 4 2 1 1 1 1 1 1 1 1 1 1 1 0 1 1 1 @10 FEM_edgeId 17 #
vertex $-1 -1 -1 $-1 $382 $449 #
straight-curve $-1 -1 -1 $-1 -1.650000000000003 -25.499999999999993 1.5 0 1 0 I I #
integer_attrib-name_attrib-gen-attrib $-1 -1 $450 $-1 $383 2 4 2 1 1 1 1 1 1 1 1 1 1 1 0 1 1 1 @10 FEM_edgeId 19 #
vertex $-1 -1 -1 $-1 $417 $451 #
straight-curve $-1 -1 -1 $-1 1.6499999999999941 -5.4999999999999947 1.5 0 -1 0 I I #
integer_attrib-name_attrib-gen-attrib $-1 -1 $-1 $385 $275 2 1 1 1 1 1 1 1 1 1 1 1 1 1 0 1 1 1 @5 jsint 5 #
integer_attrib-name_attrib-gen-attrib $-1 -1 $452 $386 $341 2 1 1 1 1 1 1 1 1 1 1 1 1 1 0 1 1 1 @5 jsint 32 #
coedge $-1 -1 -1 $-1 $388 $453 $437 $454 forward $278 $-1 #
edge $455 -1 -1 $-1 $456 0 $429 5.5000000000000053 $388 $457 forward @7 unknown T 3.6499999999999968 -11 1.5 3.6499999999999986 -5.4999999999999947 1.5 #
integer_attrib-name_attrib-gen-attrib $-1 -1 $458 $-1 $389 2 4 2 1 1 1 1 1 1 1 1 1 1 1 0 1 1 1 @10 FEM_edgeId 29 #
vertex $-1 -1 -1 $-1 $389 $459 #
straight-curve $-1 -1 -1 $-1 3.6499999999999968 -5.4999999999999947 1.5 -1 0 0 F 0 F 2.0000000000000027 #
integer_attrib-name_attrib-gen-attrib $-1 -1 $-1 $390 $343 2 1 1 1 1 1 1 1 1 1 1 1 1 1 0 1 1 1 @5 jsint 30 #
point $-1 -1 -1 $-1 1.6499999999999941 -5.4999999999999947 1.5 #
integer_attrib-name_attrib-gen-attrib $-1 -1 $-1 $397 $296 2 1 1 1 1 1 1 1 1 1 1 1 1 1 0 1 1 1 @5 jsint 8 #
integer_attrib-name_attrib-gen-attrib $-1 -1 $-1 $398 $301 2 1 1 1 1 1 1 1 1 1 1 1 1 1 0 1 1 1 @5 jsint 0 #
integer_attrib-name_attrib-gen-attrib $-1 -1 $-1 $401 $250 2 1 1 1 1 1 1 1 1 1 1 1 1 1 0 1 1 1 @5 ngint 0 #
integer_attrib-name_attrib-gen-attrib $-1 -1 $-1 $402 $260 2 1 1 1 1 1 1 1 1 1 1 1 1 1 0 1 1 1 @5 ngint 1 #
coedge $-1 -1 -1 $-1 $460 $405 $426 $454 reversed $143 $-1 #
coedge $-1 -1 -1 $-1 $406 $460 $461 $462 reversed $143 $-1 #
coedge $-1 -1 -1 $-1 $461 $407 $406 $440 forward $278 $-1 #
edge $463 -1 -1 $-1 $442 0 $464 22 $439 $465 forward @7 unknown T -11 -11 1.5 -11 11 1.5 #
integer_attrib-name_attrib-gen-attrib $-1 -1 $466 $-1 $408 2 4 2 1 1 1 1 1 1 1 1 1 1 1 0 1 1 1 @10 FEM_edgeId 23 #
vertex $-1 -1 -1 $-1 $408 $467 #
straight-curve $-1 -1 -1 $-1 -3.6500000000000021 -11 1.5 -1 0 0 F 0 F 7.3499999999999979 #
integer_attrib-name_attrib-gen-attrib $-1 -1 $-1 $409 $370 2 1 1 1 1 1 1 1 1 1 1 1 1 1 0 1 1 1 @5 jsint 22 #
point $-1 -1 -1 $-1 -3.6500000000000021 -11 1.5 #
integer_attrib-name_attrib-gen-attrib $-1 -1 $468 $-1 $417 2 4 2 1 1 1 1 1 1 1 1 1 1 1 0 1 1 1 @10 FEM_edgeId 18 #
straight-curve $-1 -1 -1 $-1 1.6499999999999941 -25.499999999999993 1.5 -1 0 0 I I #
integer_attrib-name_attrib-gen-attrib $-1 -1 $469 $418 $382 2 1 1 1 1 1 1 1 1 1 1 1 1 1 0 1 1 1 @5 jsint 17 #
point $-1 -1 -1 $-1 -1.650000000000003 -25.499999999999993 1.5 #
integer_attrib-name_attrib-gen-attrib $-1 -1 $-1 $421 $383 2 1 1 1 1 1 1 1 1 1 1 1 1 1 0 1 1 1 @5 jsint 19 #
point $-1 -1 -1 $-1 1.6499999999999941 -25.499999999999993 1.5 #
integer_attrib-name_attrib-gen-attrib $-1 -1 $-1 $425 $341 2 1 1 1 1 1 1 1 1 1 1 1 1 1 0 1 1 1 @5 jsint 4 #
coedge $-1 -1 -1 $-1 $426 $461 $460 $470 forward $278 $-1 #
edge $471 -1 -1 $-1 $472 0 $456 7.3499999999999979 $426 $473 forward @7 unknown T 3.6499999999999986 -11 1.5 10.999999999999996 -11 1.5 #
integer_attrib-name_attrib-gen-attrib $-1 -1 $474 $-1 $427 2 4 2 1 1 1 1 1 1 1 1 1 1 1 0 1 1 1 @10 FEM_edgeId 28 #
vertex $-1 -1 -1 $-1 $427 $475 #
straight-curve $-1 -1 -1 $-1 3.6499999999999986 -11 1.5 -3.229739708000452e-16 1 0 F 0 F 5.5000000000000053 #
integer_attrib-name_attrib-gen-attrib $-1 -1 $-1 $428 $389 2 1 1 1 1 1 1 1 1 1 1 1 1 1 0 1 1 1 @5 jsint 29 #
point $-1 -1 -1 $-1 3.6499999999999968 -5.4999999999999947 1.5 #
coedge $-1 -1 -1 $-1 $438 $437 $453 $470 reversed $143 $-1 #
coedge $-1 -1 -1 $-1 $453 $439 $438 $462 forward $278 $-1 #
edge $476 -1 -1 $-1 $464 0 $477 21.999999999999993 $461 $478 forward @7 unknown T -11 11 1.5 10.999999999999995 11.000000000000005 1.5 #
integer_attrib-name_attrib-gen-attrib $-1 -1 $479 $-1 $440 2 4 2 1 1 1 1 1 1 1 1 1 1 1 0 1 1 1 @10 FEM_edgeId 24 #
vertex $-1 -1 -1 $-1 $462 $480 #
straight-curve $-1 -1 -1 $-1 -11 -11 1.5 0 1 0 F 0 F 22 #
integer_attrib-name_attrib-gen-attrib $-1 -1 $-1 $441 $408 2 1 1 1 1 1 1 1 1 1 1 1 1 1 0 1 1 1 @5 jsint 23 #
point $-1 -1 -1 $-1 -11 -11 1.5 #
integer_attrib-name_attrib-gen-attrib $-1 -1 $481 $446 $417 2 1 1 1 1 1 1 1 1 1 1 1 1 1 0 1 1 1 @5 jsint 18 #
integer_attrib-name_attrib-gen-attrib $-1 -1 $-1 $448 $382 2 1 1 1 1 1 1 1 1 1 1 1 1 1 0 1 1 1 @5 jsint 19 #
edge $482 -1 -1 $-1 $477 0 $472 22.000000000000007 $453 $483 forward @7 unknown T 10.999999999999995 -11.000000000000002 1.5 10.999999999999996 11.000000000000005 1.5 #
integer_attrib-name_attrib-gen-attrib $-1 -1 $484 $-1 $454 2 4 2 1 1 1 1 1 1 1 1 1 1 1 0 1 1 1 @10 FEM_edgeId 27 #
vertex $-1 -1 -1 $-1 $454 $485 #
straight-curve $-1 -1 -1 $-1 10.999999999999996 -11 1.5 -1 0 0 F 0 F 7.3499999999999979 #
integer_attrib-name_attrib-gen-attrib $-1 -1 $-1 $455 $427 2 1 1 1 1 1 1 1 1 1 1 1 1 1 0 1 1 1 @5 jsint 28 #
point $-1 -1 -1 $-1 3.6499999999999986 -11 1.5 #
integer_attrib-name_attrib-gen-attrib $-1 -1 $486 $-1 $462 2 4 2 1 1 1 1 1 1 1 1 1 1 1 0 1 1 1 @10 FEM_edgeId 25 #
vertex $-1 -1 -1 $-1 $470 $487 #
straight-curve $-1 -1 -1 $-1 -11 11 1.5 1 2.4223047810003423e-16 0 F 0 F 21.999999999999993 #
integer_attrib-name_attrib-gen-attrib $-1 -1 $-1 $463 $440 2 1 1 1 1 1 1 1 1 1 1 1 1 1 0 1 1 1 @5 jsint 24 #
point $-1 -1 -1 $-1 -11 11 1.5 #
integer_attrib-name_attrib-gen-attrib $-1 -1 $-1 $468 $417 2 1 1 1 1 1 1 1 1 1 1 1 1 1 0 1 1 1 @5 jsint 20 #
integer_attrib-name_attrib-gen-attrib $-1 -1 $488 $-1 $470 2 4 2 1 1 1 1 1 1 1 1 1 1 1 0 1 1 1 @10 FEM_edgeId 26 #
straight-curve $-1 -1 -1 $-1 10.999999999999995 11.000000000000005 1.5 8.0743492700011362e-17 -1 0 F 0 F 22.000000000000007 #
integer_attrib-name_attrib-gen-attrib $-1 -1 $-1 $471 $454 2 1 1 1 1 1 1 1 1 1 1 1 1 1 0 1 1 1 @5 jsint 27 #
point $-1 -1 -1 $-1 10.999999999999996 -11 1.5 #
integer_attrib-name_attrib-gen-attrib $-1 -1 $-1 $476 $462 2 1 1 1 1 1 1 1 1 1 1 1 1 1 0 1 1 1 @5 jsint 25 #
point $-1 -1 -1 $-1 10.999999999999995 11.000000000000005 1.5 #
integer_attrib-name_attrib-gen-attrib $-1 -1 $-1 $482 $470 2 1 1 1 1 1 1 1 1 1 1 1 1 1 0 1 1 1 @5 jsint 26 #
End-of-ACIS-data 